PathFileType	4	(X/Y/Z)	12_2_70_p1_0-335_filt_butterworth.trc
DataRate	CameraRate	NumFrames	NumMarkers	Units	OrigDataRate	OrigDataStartFrame	OrigNumFrames
60.0	60.0	5	27	m	60.0	293	335
Frame#	Time	RHip			RKnee			RAnkle			RBigToe			RSmallToe			RHeel			LHip			LKnee			LAnkle			LBigToe			LSmallToe			LHeel			Neck			Head			Nose			RShoulder			RElbow			RWrist			RThumb			RIndex			RPinky			LShoulder			LElbow			LWrist			LThumb			LIndex			LPinky			
		X1	Y1	Z1	X2	Y2	Z2	X3	Y3	Z3	X4	Y4	Z4	X5	Y5	Z5	X6	Y6	Z6	X7	Y7	Z7	X8	Y8	Z8	X9	Y9	Z9	X10	Y10	Z10	X11	Y11	Z11	X12	Y12	Z12	X13	Y13	Z13	X14	Y14	Z14	X15	Y15	Z15	X16	Y16	Z16	X17	Y17	Z17	X18	Y18	Z18	X19	Y19	Z19	X20	Y20	Z20	X21	Y21	Z21	X22	Y22	Z22	X23	Y23	Z23	X24	Y24	Z24	X25	Y25	Z25	X26	Y26	Z26	X27	Y27	Z27	
293	4.883333333333334	0.4317981166746175	0.9907256093240371	0.4486853173600255	0.475141296327129	0.5580072928411183	0.5130750323069388	0.48973147707304854	0.14109888957244826	0.6035273634734271	0.47422083465639453	0.12363147945874607	0.3694169397478927	0.5296067302903833	0.13004652820311588	0.4050016785737309	0.47161032118623136	0.06020716954284402	0.6628265435767104	0.20646346821718597	0.9501911029591625	0.46319486100220797	0.2512169097147406	0.5250791118198853	0.5031145202524716	0.31171853007919714	0.12519418431643423	0.5780285497907104	0.32614521324424883	0.0998632495742004	0.3893589581176905	0.2596923817199305	0.10398027943339117	0.4252372738326274	0.3365819811285044	0.06602218292736357	0.6423409053813481	0.24259650803279387	1.6296289578696446	0.46500884883401333	0.21664117231162644	1.8834918493593464	0.40993629572780965	0.24279921679066935	1.7543047706063883	0.3401188275298169	0.4376253417015926	1.5313193798012912	0.4426873511669971	0.4942417360846123	1.2526040131132177	0.41547213684684065	0.38274878065182183	1.0493978506228177	0.2641619323180209	0.3231027703984065	0.991815978564401	0.24402371993865477	0.31309533152167546	0.9557921907389437	0.2660468268074999	0.2979370781014183	0.9541711899476579	0.2893462436611956	0.09098379650141991	1.5057189532352313	0.47521041172445294	0.06820364086837044	1.2155875829563783	0.41279568669249883	0.25175315813515303	1.0430851668696746	0.3231459143018228	0.35021450279732363	1.0076198527041589	0.2570091869836346	0.3586506213672431	0.9744606218725944	0.24355073600497684	0.32281566079267393	0.9490302327330956	0.2772524392696556	
294	4.9	0.43180763118629306	0.9908328133168494	0.4488227892525146	0.47515455480042745	0.5580811567685585	0.5130653452568604	0.489746200209441	0.141112223903132	0.6035303083023753	0.4741974210726655	0.12377561737223082	0.3694036684761727	0.5295955266460155	0.1301779841357769	0.40504405739397226	0.47160087743351703	0.06017945659068892	0.662846127269884	0.2065749514000302	0.9501943288171409	0.46326419503323174	0.2509007846677835	0.525334367177506	0.5029061638349047	0.3118830176949692	0.12520402133022532	0.5784004309137393	0.32617101682749583	0.0998313950708726	0.3892076594069255	0.25971024045702346	0.1040255543545229	0.42518893945106545	0.3366043106349947	0.066338969045093	0.6423121623730225	0.2425655459189285	1.6296292376348591	0.4648177100264372	0.21749216081033956	1.8834627030040214	0.407001673078103	0.24337512946242806	1.7543571320583984	0.34038448302473034	0.43760203357657135	1.5311794478349559	0.44256397454317176	0.49423260530599233	1.252629081714831	0.41546932439932116	0.3827612303870431	1.0494081201210792	0.2641630416617522	0.32299648151850113	0.9919923687962752	0.2440278357839997	0.3130694260656759	0.9564030842050687	0.2659011922887493	0.297961081602647	0.9541975558130403	0.2893208670662523	0.09098468105635216	1.505720581315886	0.47523294734593846	0.06821712649064729	1.2155792495301805	0.41278787387242943	0.2517627805911268	1.0430725638282141	0.32314467388896656	0.3501983172296257	1.0076371792705392	0.25701994861571287	0.35778481518315447	0.9739206257329472	0.24673206991339747	0.32308335597380133	0.9499711274313145	0.2791941421005014	
295	4.916666666666667	0.4317195591342308	0.990835083379772	0.4491502224009135	0.47516511429984304	0.558159403887175	0.5130522518095123	0.48976457295691017	0.14116798505666647	0.6035129448329237	0.47418620026916225	0.12386377839758267	0.36938142343258573	0.5296032653036096	0.13026028918293106	0.40504785805578875	0.4716117826324795	0.06015342866998818	0.6628930151627733	0.20673937922006327	0.9501720897688499	0.46336772829838785	0.2505725404585948	0.5255354466989609	0.5026912321271328	0.31210646476719495	0.12501028956005075	0.578988020822551	0.32617877773367276	0.09984510624632395	0.3890906679902581	0.25972163294066	0.10407687253328285	0.425141929820226	0.33662965461887806	0.06675068788460588	0.6422870510944747	0.24255452975977326	1.629621730891479	0.4648196117923826	0.21834421298868856	1.8834985546182137	0.40405496009905184	0.24371264555791403	1.7543817039841738	0.34053710196760095	0.437606944002383	1.53082114698179	0.44252081173961205	0.49422516831311625	1.2526467066160927	0.4154535414414412	0.38277332544274867	1.049413387691404	0.26417326011937364	0.3228251408078703	0.9925607398741265	0.24387690293804187	0.31275967847084685	0.9572340361775514	0.265644375703416	0.2979694927888493	0.9542150114986603	0.28928039132338546	0.09099080940286353	1.5057325509465413	0.47525003306915614	0.06823101473572996	1.2155804744738403	0.41278839084337976	0.2517672954490827	1.043065725786113	0.3231431303282268	0.3498677692421457	1.0078461573037658	0.25591716618338817	0.3569672550158036	0.9735628223006044	0.24963018815369126	0.3231041121404179	0.9506490666468862	0.2806595198501748	
296	4.933333333333334	0.431542378281926	0.9906352040602522	0.4496684361439337	0.4751725486630242	0.5582407273036448	0.5130363379230749	0.48979106990667437	0.14131130622241395	0.6034702457829043	0.4741852044899103	0.12389108732834846	0.3693671382404111	0.5296254068633648	0.1302704766385887	0.4050114056337608	0.47164029397416934	0.0601306877150267	0.6629648284734274	0.20694817469727017	0.9501039223908369	0.4635017958178148	0.25024636253450977	0.5256683384274251	0.5024807673661494	0.31237760981023965	0.12461081892411421	0.5797544046754218	0.3261756275446145	0.09988251305948506	0.3890140498140165	0.2597273159132944	0.104111100276569	0.4250973087608512	0.3366530660342935	0.06725280450153398	0.6422711561847806	0.24251045446925762	1.629602999274977	0.4650278822189744	0.21909652982313893	1.8836361659585081	0.4014596851072466	0.24380267705477784	1.7543791050961353	0.3405693675834065	0.4376540998545343	1.5302285325169094	0.4425556258121565	0.49422162390726554	1.2526557811205996	0.4154460204156692	0.3827873922787196	1.0494204109243568	0.2641814320541127	0.32271325757345737	0.9934260790470563	0.24356396402206826	0.31232728666429	0.9581918267675589	0.265311697400486	0.2979652928345714	0.9542308671083329	0.28924691023820653	0.09099994439139958	1.505756377019977	0.47526279714403735	0.0682433570186169	1.215585443964579	0.4128013563190292	0.2517656167527149	1.0430612544721323	0.3231480105045153	0.34934313828849906	1.0082336934447118	0.25408926386602326	0.35631038112236785	0.9734896245817626	0.2519196989536702	0.32296424893578046	0.9509900154473552	0.2814617798141726	
297	4.95	0.4313270454376641	0.9902325804836629	0.4503494211877168	0.4751772977413563	0.5583135962608461	0.513019015019214	0.4898299808481498	0.14158548508864766	0.6034042667548125	0.47418950297813833	0.12387978508563598	0.3693764936218436	0.5296543240386963	0.13019793428804016	0.404935756091707	0.4716872608456907	0.06010709110765967	0.6630667099291123	0.20720247164426084	0.9499967667681364	0.46366587514486	0.24990775627438305	0.5257206793266355	0.5022725159443763	0.31268885910310007	0.12399795867234945	0.580669931381108	0.32617858016650797	0.09991441893515127	0.3889537258927183	0.25973119324317906	0.10411673314067701	0.4250525481686562	0.3366734759111496	0.06783188718509027	0.6422639060703434	0.2424136644648065	1.6295741933037748	0.46541029027445074	0.2196673828387381	1.8839112759242553	0.39948541471814314	0.24373836041032476	1.754361679140424	0.3405154159282472	0.4377544079778395	1.5293904245575558	0.4426482032667637	0.4942233047125061	1.252658032749882	0.4154611685360692	0.3828067152261111	1.0494365300674673	0.2641790838095031	0.3227754213695536	0.9944063460333725	0.24312614496992382	0.31194157975826653	0.9592127136232067	0.26496905964003326	0.29796084359062297	0.9542380582332426	0.2892423031096285	0.09100959698299252	1.5057902790361137	0.47527586006014055	0.06824881654573436	1.2155881922856437	0.41282266581116356	0.2517594123706597	1.0430524004550976	0.3231593537747418	0.3487499737379665	1.0088501135259598	0.25194742658972674	0.3559186212510431	0.9737792492671623	0.2532977053497969	0.32279857056244177	0.9510152779722614	0.28164638075172344	
